<svg width="699" height="196" fill="none" xmlns="http://www.w3.org/2000/svg"><g clip-path="url(#a)"><path fill-rule="evenodd" clip-rule="evenodd" d="M504.193 0v195.234h-60.502V0h60.502ZM.5.024h160.327v60.158h-49.934v135.076H50.391V60.182H.5V.024ZM376.113.023 352.51 116.509l-50.281-72.594-50.324 72.723L228.259.023h-60.502l39.584 195.234h60.632l34.256-54.478 34.301 54.478h60.501L436.615.023h-60.502Zm141.359 0h97.097c46.34 0 83.931 37.308 83.931 83.352 0 46.043-37.591 83.395-83.931 83.395h-36.596v28.487h-60.501V.023Zm60.501 106.632h36.596c12.949 0 23.43-10.37 23.43-23.237 0-12.867-10.481-23.28-23.43-23.28h-36.596v46.517Z" fill="#fff"/></g><defs><clipPath id="a"><path fill="#fff" transform="translate(.5)" d="M0 0h698v196H0z"/></clipPath></defs></svg>